Coordinates
version=1
nRows=54
nColumns=12
inDegrees=yes

Units are S.I. units (second, meters, Newtons, ...)
Angles are in degrees

endheader
time	SC_y	SC_z	SC_x	AC_y	AC_z	AC_x	GH_y	GH_z	GH_yy	EL_x	PS_y
       0.0              -21.36          23.65          10.52          55.46         0.2322         -5.215          15.51          21.29          144.8          49.95          85.21
    0.0314              -21.36          23.65          10.53          55.46          0.232         -5.215          15.49          21.28          144.8          49.95          85.21
   0.06281              -21.36          23.65          10.54          55.46         0.2317         -5.216          15.47          21.28          144.8          49.96          85.21
   0.09421              -21.37          23.65          10.54          55.46         0.2314         -5.216          15.44          21.27          144.7          49.96          85.22
    0.1256              -21.37          23.65          10.55          55.46          0.231         -5.216          15.42          21.27          144.7          49.96          85.22
     0.157              -21.38          23.65          10.56          55.46         0.2307         -5.217          15.39          21.26          144.7          49.97          85.22
    0.1884              -21.38          23.64          10.57          55.46         0.2303         -5.217          15.36          21.25          144.6          49.97          85.23
    0.2198              -21.39          23.64          10.59          55.46         0.2299         -5.217          15.33          21.25          144.6          49.97          85.23
    0.2512              -21.39          23.64           10.6          55.46         0.2295         -5.218           15.3          21.24          144.5          49.98          85.24
    0.2826               -21.4          23.64          10.61          55.46          0.229         -5.218          15.26          21.23          144.5          49.98          85.24
     0.314              -21.41          23.64          10.63          55.46         0.2285         -5.218          15.22          21.22          144.4          49.99          85.25
    0.3454              -21.41          23.63          10.64          55.46          0.228         -5.219          15.18          21.21          144.4          49.99          85.26
    0.3768              -21.42          23.63          10.66          55.46         0.2274         -5.219          15.13           21.2          144.3           50.0          85.26
    0.4082              -21.43          23.63          10.67          55.46         0.2268          -5.22          15.08          21.19          144.2          50.01          85.27
    0.4396              -21.44          23.63          10.69          55.46         0.2261          -5.22          15.03          21.18          144.1          50.01          85.28
     0.471              -21.45          23.62          10.71          55.46         0.2254         -5.221          14.97          21.17          144.1          50.02          85.29
    0.5024              -21.46          23.62          10.74          55.46         0.2246         -5.222          14.91          21.15          144.0          50.03           85.3
    0.5338              -21.47          23.62          10.76          55.46         0.2238         -5.223          14.84          21.14          143.9          50.04          85.31
    0.5652              -21.48          23.61          10.79          55.46         0.2228         -5.223          14.77          21.12          143.8          50.05          85.32
    0.5967               -21.5          23.61          10.82          55.46         0.2218         -5.224          14.68           21.1          143.6          50.06          85.33
    0.6281              -21.51           23.6          10.85          55.46         0.2207         -5.225          14.59          21.08          143.5          50.07          85.34
    0.6595              -21.53           23.6          10.88          55.46         0.2194         -5.226           14.5          21.06          143.4          50.09          85.36
    0.6909              -21.55          23.59          10.92          55.46         0.2181         -5.228          14.39          21.03          143.2           50.1          85.38
    0.7223              -21.57          23.58          10.97          55.46         0.2165         -5.229          14.27          21.01          143.0          50.12          85.39
    0.7537              -21.59          23.58          11.01          55.46         0.2148          -5.23          14.13          20.98          142.9          50.13          85.41
    0.7851              -21.62          23.57          11.07          55.46          0.213         -5.232          13.98          20.94          142.6          50.15          85.44
    0.8165              -21.65          23.56          11.13          55.47         0.2109         -5.234          13.81          20.91          142.4          50.18          85.46
    0.8479              -21.68          23.55          11.19          55.47         0.2085         -5.236          13.62          20.86          142.1           50.2          85.49
    0.8793              -21.72          23.54          11.27          55.47         0.2058         -5.238          13.41          20.82          141.8          50.23          85.52
    0.9107              -21.76          23.53          11.36          55.47         0.2027         -5.241          13.17          20.76          141.5          50.26          85.56
    0.9421               -21.8          23.51          11.45          55.47         0.1993         -5.244          12.89           20.7          141.1           50.3           85.6
    0.9735              -21.86          23.49          11.57          55.47         0.1953         -5.247          12.57          20.63          140.6          50.34          85.65
     1.005              -21.92          23.47           11.7          55.47         0.1907         -5.251          12.21          20.55          140.1          50.39           85.7
     1.036              -21.99          23.45          11.85          55.48         0.1853         -5.256          11.78          20.45          139.5          50.45          85.77
     1.068              -22.08          23.42          12.03          55.48          0.179         -5.261          11.28          20.34          138.7          50.51          85.84
     1.099              -22.18          23.39          12.24          55.48         0.1716         -5.268           10.7          20.21          137.9          50.59          85.93
      1.13               -22.3          23.35          12.49          55.48         0.1628         -5.276          9.997          20.05          136.9          50.69          86.04
     1.162              -22.44          23.31          12.78          55.49         0.1523         -5.285           9.16          19.86          135.7           50.8          86.16
     1.193              -22.61          23.25          13.14          55.49         0.1396         -5.296          8.148          19.63          134.2          50.93          86.32
     1.225              -22.82          23.19          13.58           55.5          0.124         -5.309          6.911          19.35          132.5           51.1           86.5
     1.256              -23.08           23.1          14.13          55.51         0.1048         -5.326          5.384          19.01          130.3           51.3          86.73
     1.288              -23.41           23.0          14.81          55.52        0.08087         -5.347           3.48          18.58          127.5          51.56          87.02
     1.319              -23.82          22.87          15.66          55.53         0.0507         -5.373          1.082          18.04          124.1          51.88          87.38
      1.35              -24.34          22.71          16.75          55.54        0.01235         -5.406         -1.967          17.36          119.7          52.28          87.84
     1.382               -25.0          22.49          18.14          55.56       -0.03674         -5.449         -5.869          16.48          114.1           52.8          88.43
     1.413              -25.85          22.22          19.92          55.59       -0.09973         -5.504         -10.88          15.36          106.8          53.47          89.19
     1.445              -26.95          21.88           22.2          55.62        -0.1802         -5.574         -17.27          13.92          97.63          54.32          90.15
     1.476              -28.32          21.44          25.06          55.66        -0.2814         -5.662         -25.32          12.11          86.05           55.4          91.36
     1.507              -29.99          20.91          28.55           55.7        -0.4047         -5.769         -35.12          9.908          71.93          56.71          92.84
     1.539              -31.92          20.29           32.6          55.76        -0.5476         -5.894         -46.48          7.354          55.58          58.22          94.55
      1.57              -34.02          19.63          36.98          55.82        -0.7023         -6.028         -58.78          4.589          37.86          59.86          96.41
     1.602              -36.12          18.96          41.36          55.88        -0.8571         -6.163         -71.08          1.824          20.15          61.51          98.26
     1.633              -38.05          18.35          45.41          55.93           -1.0         -6.287         -82.44        -0.7296          3.788          63.02          99.98
     1.664              -39.72          17.82           48.9          55.98         -1.123         -6.394         -92.24         -2.933         -10.33          64.33          101.5
